%TF.GenerationSoftware,KiCad,Pcbnew,9.0.2*%
%TF.CreationDate,2026-02-27T11:04:48-05:00*%
%TF.ProjectId,ENRTENADOR ATMEGA1284P,454e5254-454e-4414-944f-522041544d45,rev?*%
%TF.SameCoordinates,Original*%
%TF.FileFunction,Soldermask,Bot*%
%TF.FilePolarity,Negative*%
%FSLAX46Y46*%
G04 Gerber Fmt 4.6, Leading zero omitted, Abs format (unit mm)*
G04 Created by KiCad (PCBNEW 9.0.2) date 2026-02-27 11:04:48*
%MOMM*%
%LPD*%
G01*
G04 APERTURE LIST*
G04 Aperture macros list*
%AMRoundRect*
0 Rectangle with rounded corners*
0 $1 Rounding radius*
0 $2 $3 $4 $5 $6 $7 $8 $9 X,Y pos of 4 corners*
0 Add a 4 corners polygon primitive as box body*
4,1,4,$2,$3,$4,$5,$6,$7,$8,$9,$2,$3,0*
0 Add four circle primitives for the rounded corners*
1,1,$1+$1,$2,$3*
1,1,$1+$1,$4,$5*
1,1,$1+$1,$6,$7*
1,1,$1+$1,$8,$9*
0 Add four rect primitives between the rounded corners*
20,1,$1+$1,$2,$3,$4,$5,0*
20,1,$1+$1,$4,$5,$6,$7,0*
20,1,$1+$1,$6,$7,$8,$9,0*
20,1,$1+$1,$8,$9,$2,$3,0*%
%AMFreePoly0*
4,1,23,0.500000,-0.750000,0.000000,-0.750000,0.000000,-0.745722,-0.065263,-0.745722,-0.191342,-0.711940,-0.304381,-0.646677,-0.396677,-0.554381,-0.461940,-0.441342,-0.495722,-0.315263,-0.495722,-0.250000,-0.500000,-0.250000,-0.500000,0.250000,-0.495722,0.250000,-0.495722,0.315263,-0.461940,0.441342,-0.396677,0.554381,-0.304381,0.646677,-0.191342,0.711940,-0.065263,0.745722,0.000000,0.745722,
0.000000,0.750000,0.500000,0.750000,0.500000,-0.750000,0.500000,-0.750000,$1*%
%AMFreePoly1*
4,1,23,0.000000,0.745722,0.065263,0.745722,0.191342,0.711940,0.304381,0.646677,0.396677,0.554381,0.461940,0.441342,0.495722,0.315263,0.495722,0.250000,0.500000,0.250000,0.500000,-0.250000,0.495722,-0.250000,0.495722,-0.315263,0.461940,-0.441342,0.396677,-0.554381,0.304381,-0.646677,0.191342,-0.711940,0.065263,-0.745722,0.000000,-0.745722,0.000000,-0.750000,-0.500000,-0.750000,
-0.500000,0.750000,0.000000,0.750000,0.000000,0.745722,0.000000,0.745722,$1*%
G04 Aperture macros list end*
%ADD10R,2.600000X2.600000*%
%ADD11C,2.600000*%
%ADD12R,1.700000X1.700000*%
%ADD13O,1.700000X1.700000*%
%ADD14RoundRect,0.250000X0.600000X0.600000X-0.600000X0.600000X-0.600000X-0.600000X0.600000X-0.600000X0*%
%ADD15C,1.700000*%
%ADD16R,1.300000X1.300000*%
%ADD17C,1.300000*%
%ADD18RoundRect,0.250000X0.600000X-0.600000X0.600000X0.600000X-0.600000X0.600000X-0.600000X-0.600000X0*%
%ADD19C,3.500000*%
%ADD20C,5.700000*%
%ADD21R,2.000000X2.000000*%
%ADD22C,2.000000*%
%ADD23R,2.300000X2.300000*%
%ADD24C,2.300000*%
%ADD25RoundRect,0.250000X0.450000X-0.262500X0.450000X0.262500X-0.450000X0.262500X-0.450000X-0.262500X0*%
%ADD26RoundRect,0.250000X-1.000000X-0.650000X1.000000X-0.650000X1.000000X0.650000X-1.000000X0.650000X0*%
%ADD27RoundRect,0.250000X0.262500X0.450000X-0.262500X0.450000X-0.262500X-0.450000X0.262500X-0.450000X0*%
%ADD28RoundRect,0.250000X0.312500X0.625000X-0.312500X0.625000X-0.312500X-0.625000X0.312500X-0.625000X0*%
%ADD29FreePoly0,90.000000*%
%ADD30FreePoly1,90.000000*%
%ADD31RoundRect,0.250000X0.250000X0.475000X-0.250000X0.475000X-0.250000X-0.475000X0.250000X-0.475000X0*%
%ADD32RoundRect,0.250000X-0.450000X0.262500X-0.450000X-0.262500X0.450000X-0.262500X0.450000X0.262500X0*%
%ADD33RoundRect,0.250000X-0.262500X-0.450000X0.262500X-0.450000X0.262500X0.450000X-0.262500X0.450000X0*%
%ADD34RoundRect,0.150000X0.150000X-0.512500X0.150000X0.512500X-0.150000X0.512500X-0.150000X-0.512500X0*%
%ADD35RoundRect,0.243750X-0.243750X-0.456250X0.243750X-0.456250X0.243750X0.456250X-0.243750X0.456250X0*%
G04 APERTURE END LIST*
D10*
%TO.C,J1*%
X5095000Y-62300000D03*
D11*
X5095000Y-67300000D03*
%TD*%
D12*
%TO.C,J8*%
X58450000Y-43900000D03*
D13*
X55910000Y-43900000D03*
X53370000Y-43900000D03*
X50830000Y-43900000D03*
X48290000Y-43900000D03*
X45750000Y-43900000D03*
X43210000Y-43900000D03*
X40670000Y-43900000D03*
%TD*%
D14*
%TO.C,J17*%
X95675000Y-57675000D03*
D15*
X93135000Y-57675000D03*
X95675000Y-55135000D03*
X93135000Y-55135000D03*
X95675000Y-52595000D03*
X93135000Y-52595000D03*
X95675000Y-50055000D03*
X93135000Y-50055000D03*
X95675000Y-47515000D03*
X93135000Y-47515000D03*
%TD*%
D12*
%TO.C,J20*%
X86200000Y-42730000D03*
D13*
X86200000Y-45270000D03*
X86200000Y-47810000D03*
X86200000Y-50350000D03*
X86200000Y-52890000D03*
X86200000Y-55430000D03*
X86200000Y-57970000D03*
X86200000Y-60510000D03*
X86200000Y-63050000D03*
%TD*%
D12*
%TO.C,J10*%
X23550000Y-19950000D03*
D13*
X21010000Y-19950000D03*
X18470000Y-19950000D03*
X15930000Y-19950000D03*
X13390000Y-19950000D03*
X10850000Y-19950000D03*
X8310000Y-19950000D03*
X5770000Y-19950000D03*
%TD*%
D16*
%TO.C,Q2*%
X11560000Y-25880000D03*
D17*
X10290000Y-27150000D03*
X11560000Y-28420000D03*
%TD*%
D14*
%TO.C,J19*%
X95980000Y-81600000D03*
D15*
X93440000Y-81600000D03*
X95980000Y-79060000D03*
X93440000Y-79060000D03*
X95980000Y-76520000D03*
X93440000Y-76520000D03*
X95980000Y-73980000D03*
X93440000Y-73980000D03*
X95980000Y-71440000D03*
X93440000Y-71440000D03*
%TD*%
D12*
%TO.C,PORTD1*%
X49360000Y-83100000D03*
D13*
X51900000Y-83100000D03*
X54440000Y-83100000D03*
X56980000Y-83100000D03*
X59520000Y-83100000D03*
X62060000Y-83100000D03*
X64600000Y-83100000D03*
X67140000Y-83100000D03*
%TD*%
D12*
%TO.C,J7*%
X35205000Y-3485000D03*
D13*
X35205000Y-6025000D03*
X32665000Y-3485000D03*
X32665000Y-6025000D03*
X30125000Y-3485000D03*
X30125000Y-6025000D03*
X27585000Y-3485000D03*
X27585000Y-6025000D03*
X25045000Y-3485000D03*
X25045000Y-6025000D03*
X22505000Y-3485000D03*
X22505000Y-6025000D03*
X19965000Y-3485000D03*
X19965000Y-6025000D03*
X17425000Y-3485000D03*
X17425000Y-6025000D03*
X14885000Y-3485000D03*
X14885000Y-6025000D03*
X12345000Y-3485000D03*
X12345000Y-6025000D03*
%TD*%
D12*
%TO.C,J13*%
X82350000Y-42780000D03*
D13*
X82350000Y-45320000D03*
X82350000Y-47860000D03*
X82350000Y-50400000D03*
X82350000Y-52940000D03*
X82350000Y-55480000D03*
X82350000Y-58020000D03*
X82350000Y-60560000D03*
X82350000Y-63100000D03*
%TD*%
D12*
%TO.C,J16*%
X49380000Y-86950000D03*
D13*
X51920000Y-86950000D03*
X54460000Y-86950000D03*
X57000000Y-86950000D03*
X59540000Y-86950000D03*
X62080000Y-86950000D03*
X64620000Y-86950000D03*
X67160000Y-86950000D03*
%TD*%
D12*
%TO.C,J3*%
X12185000Y-41640000D03*
D13*
X14725000Y-41640000D03*
X17265000Y-41640000D03*
X19805000Y-41640000D03*
X22345000Y-41640000D03*
%TD*%
D12*
%TO.C,PORTC1*%
X82355000Y-85315000D03*
D13*
X82355000Y-82775000D03*
X82355000Y-80235000D03*
X82355000Y-77695000D03*
X82355000Y-75155000D03*
X82355000Y-72615000D03*
X82355000Y-70075000D03*
X82355000Y-67535000D03*
%TD*%
D18*
%TO.C,J24*%
X53160000Y-96030000D03*
D15*
X53160000Y-93490000D03*
X55700000Y-96030000D03*
X55700000Y-93490000D03*
X58240000Y-96030000D03*
X58240000Y-93490000D03*
X60780000Y-96030000D03*
X60780000Y-93490000D03*
X63320000Y-96030000D03*
X63320000Y-93490000D03*
%TD*%
D12*
%TO.C,J6*%
X64205000Y-3610000D03*
D13*
X64205000Y-6150000D03*
X61665000Y-3610000D03*
X61665000Y-6150000D03*
X59125000Y-3610000D03*
X59125000Y-6150000D03*
X56585000Y-3610000D03*
X56585000Y-6150000D03*
X54045000Y-3610000D03*
X54045000Y-6150000D03*
X51505000Y-3610000D03*
X51505000Y-6150000D03*
X48965000Y-3610000D03*
X48965000Y-6150000D03*
X46425000Y-3610000D03*
X46425000Y-6150000D03*
X43885000Y-3610000D03*
X43885000Y-6150000D03*
X41345000Y-3610000D03*
X41345000Y-6150000D03*
%TD*%
D12*
%TO.C,J21*%
X7877500Y-83450000D03*
D15*
X7877500Y-80950000D03*
X5877500Y-80950000D03*
X5877500Y-83450000D03*
D19*
X3167500Y-88220000D03*
X3167500Y-76180000D03*
%TD*%
D20*
%TO.C,REF\u002A\u002A*%
X96000000Y-96000000D03*
%TD*%
D10*
%TO.C,J9*%
X94540000Y-15460000D03*
D11*
X94540000Y-10460000D03*
%TD*%
D12*
%TO.C,J4*%
X59075000Y-37300000D03*
D13*
X56535000Y-37300000D03*
X53995000Y-37300000D03*
X51455000Y-37300000D03*
%TD*%
D20*
%TO.C,REF\u002A\u002A*%
X4000000Y-4000000D03*
%TD*%
D12*
%TO.C,ICSP1*%
X22260000Y-92710000D03*
D13*
X22260000Y-95250000D03*
X19720000Y-92710000D03*
X19720000Y-95250000D03*
X17180000Y-92710000D03*
X17180000Y-95250000D03*
%TD*%
D20*
%TO.C,REF\u002A\u002A*%
X96000000Y-4000000D03*
%TD*%
D12*
%TO.C,J14*%
X26845000Y-83100000D03*
D13*
X29385000Y-83100000D03*
X31925000Y-83100000D03*
X34465000Y-83100000D03*
X37005000Y-83100000D03*
X39545000Y-83100000D03*
X42085000Y-83100000D03*
X44625000Y-83100000D03*
%TD*%
D20*
%TO.C,REF\u002A\u002A*%
X4000000Y-96000000D03*
%TD*%
D18*
%TO.C,J18*%
X30625000Y-96015000D03*
D15*
X30625000Y-93475000D03*
X33165000Y-96015000D03*
X33165000Y-93475000D03*
X35705000Y-96015000D03*
X35705000Y-93475000D03*
X38245000Y-96015000D03*
X38245000Y-93475000D03*
X40785000Y-96015000D03*
X40785000Y-93475000D03*
%TD*%
D12*
%TO.C,J5*%
X46375000Y-37325000D03*
D13*
X43835000Y-37325000D03*
X41295000Y-37325000D03*
X38755000Y-37325000D03*
%TD*%
D21*
%TO.C,BZ1*%
X20550000Y-33200000D03*
D22*
X20550000Y-25600000D03*
%TD*%
D12*
%TO.C,J11*%
X78700000Y-94570000D03*
D13*
X78700000Y-97110000D03*
X76160000Y-94570000D03*
X76160000Y-97110000D03*
X73620000Y-94570000D03*
X73620000Y-97110000D03*
X71080000Y-94570000D03*
X71080000Y-97110000D03*
%TD*%
D12*
%TO.C,J15*%
X86205000Y-85315000D03*
D13*
X86205000Y-82775000D03*
X86205000Y-80235000D03*
X86205000Y-77695000D03*
X86205000Y-75155000D03*
X86205000Y-72615000D03*
X86205000Y-70075000D03*
X86205000Y-67535000D03*
%TD*%
D23*
%TO.C,K1*%
X97770000Y-38420000D03*
D24*
X97770000Y-28260000D03*
X97770000Y-20640000D03*
X90150000Y-38420000D03*
%TD*%
D12*
%TO.C,PORTB1*%
X26795000Y-87075000D03*
D13*
X29335000Y-87075000D03*
X31875000Y-87075000D03*
X34415000Y-87075000D03*
X36955000Y-87075000D03*
X39495000Y-87075000D03*
X42035000Y-87075000D03*
X44575000Y-87075000D03*
%TD*%
D12*
%TO.C,J12*%
X90530000Y-94580000D03*
D13*
X90530000Y-97120000D03*
X87990000Y-94580000D03*
X87990000Y-97120000D03*
X85450000Y-94580000D03*
X85450000Y-97120000D03*
X82910000Y-94580000D03*
X82910000Y-97120000D03*
%TD*%
D25*
%TO.C,R14*%
X40400000Y-33350000D03*
X40400000Y-31525000D03*
%TD*%
D26*
%TO.C,D7*%
X92050000Y-33680000D03*
X96050000Y-33680000D03*
%TD*%
D25*
%TO.C,R21*%
X25075000Y-13912500D03*
X25075000Y-12087500D03*
%TD*%
D27*
%TO.C,R35*%
X71245000Y-64355000D03*
X69420000Y-64355000D03*
%TD*%
%TO.C,R31*%
X71245000Y-54230000D03*
X69420000Y-54230000D03*
%TD*%
D25*
%TO.C,R22*%
X22175000Y-13912500D03*
X22175000Y-12087500D03*
%TD*%
D27*
%TO.C,R36*%
X71245000Y-66830000D03*
X69420000Y-66830000D03*
%TD*%
D28*
%TO.C,R38*%
X94962500Y-65000000D03*
X92037500Y-65000000D03*
%TD*%
D27*
%TO.C,R33*%
X71245000Y-59555000D03*
X69420000Y-59555000D03*
%TD*%
D25*
%TO.C,R23*%
X19425000Y-13912500D03*
X19425000Y-12087500D03*
%TD*%
%TO.C,R24*%
X16625000Y-13912500D03*
X16625000Y-12087500D03*
%TD*%
D29*
%TO.C,JP4*%
X90500000Y-69150000D03*
D30*
X90500000Y-67850000D03*
%TD*%
D25*
%TO.C,R26*%
X10925000Y-13912500D03*
X10925000Y-12087500D03*
%TD*%
D31*
%TO.C,C19*%
X76490000Y-50190000D03*
X74590000Y-50190000D03*
%TD*%
D25*
%TO.C,R27*%
X7950000Y-13912500D03*
X7950000Y-12087500D03*
%TD*%
D31*
%TO.C,C23*%
X76490000Y-62230000D03*
X74590000Y-62230000D03*
%TD*%
D27*
%TO.C,R30*%
X71220000Y-51680000D03*
X69395000Y-51680000D03*
%TD*%
%TO.C,R34*%
X71245000Y-61980000D03*
X69420000Y-61980000D03*
%TD*%
D31*
%TO.C,C18*%
X76490000Y-47180000D03*
X74590000Y-47180000D03*
%TD*%
D32*
%TO.C,R18*%
X36125000Y-31525000D03*
X36125000Y-33350000D03*
%TD*%
%TO.C,R17*%
X60250000Y-31925000D03*
X60250000Y-33750000D03*
%TD*%
D27*
%TO.C,R32*%
X71245000Y-56905000D03*
X69420000Y-56905000D03*
%TD*%
D31*
%TO.C,C22*%
X76490000Y-59220000D03*
X74590000Y-59220000D03*
%TD*%
%TO.C,C20*%
X76490000Y-53200000D03*
X74590000Y-53200000D03*
%TD*%
D27*
%TO.C,R29*%
X71195000Y-49105000D03*
X69370000Y-49105000D03*
%TD*%
D33*
%TO.C,R10*%
X69237500Y-12210000D03*
X71062500Y-12210000D03*
%TD*%
D25*
%TO.C,R28*%
X4950000Y-13912500D03*
X4950000Y-12087500D03*
%TD*%
D32*
%TO.C,R12*%
X74450000Y-7347500D03*
X74450000Y-9172500D03*
%TD*%
D31*
%TO.C,C25*%
X76490000Y-68250000D03*
X74590000Y-68250000D03*
%TD*%
D34*
%TO.C,Q1*%
X71062500Y-9417500D03*
X69162500Y-9417500D03*
X70112500Y-7142500D03*
%TD*%
D31*
%TO.C,C21*%
X76490000Y-56210000D03*
X74590000Y-56210000D03*
%TD*%
D32*
%TO.C,R19*%
X58075000Y-31925000D03*
X58075000Y-33750000D03*
%TD*%
D25*
%TO.C,R25*%
X13850000Y-13912500D03*
X13850000Y-12087500D03*
%TD*%
D32*
%TO.C,R15*%
X38275000Y-31525000D03*
X38275000Y-33350000D03*
%TD*%
D29*
%TO.C,JP3*%
X90500000Y-59800000D03*
D30*
X90500000Y-58500000D03*
%TD*%
D32*
%TO.C,R20*%
X34000000Y-31500000D03*
X34000000Y-33325000D03*
%TD*%
%TO.C,R16*%
X62425000Y-31900000D03*
X62425000Y-33725000D03*
%TD*%
D31*
%TO.C,C24*%
X76490000Y-65240000D03*
X74590000Y-65240000D03*
%TD*%
D33*
%TO.C,R11*%
X69275000Y-14730000D03*
X71100000Y-14730000D03*
%TD*%
D25*
%TO.C,R13*%
X64600000Y-33750000D03*
X64600000Y-31925000D03*
%TD*%
D28*
%TO.C,R37*%
X95000000Y-62000000D03*
X92075000Y-62000000D03*
%TD*%
D35*
%TO.C,D6*%
X73382500Y-12290000D03*
X75257500Y-12290000D03*
%TD*%
M02*
