M48
; DRILL file {KiCad 9.0.2} date 2026-02-27T11:04:47-0500
; FORMAT={-:-/ absolute / metric / decimal}
; #@! TF.CreationDate,2026-02-27T11:04:47-05:00
; #@! TF.GenerationSoftware,Kicad,Pcbnew,9.0.2
; #@! TF.FileFunction,Plated,1,2,PTH
FMAT,2
METRIC
; #@! TA.AperFunction,Plated,PTH,ViaDrill
T1C0.300
; #@! TA.AperFunction,Plated,PTH,ViaDrill
T2C0.400
; #@! TA.AperFunction,Plated,PTH,ComponentDrill
T3C0.750
; #@! TA.AperFunction,Plated,PTH,ComponentDrill
T4C0.920
; #@! TA.AperFunction,Plated,PTH,ComponentDrill
T5C1.000
; #@! TA.AperFunction,Plated,PTH,ComponentDrill
T6C1.300
; #@! TA.AperFunction,Plated,PTH,ComponentDrill
T7C2.330
; #@! TA.AperFunction,Plated,PTH,ComponentDrill
T8C3.200
%
G90
G05
T1
X4.95Y-10.775
X6.75Y-55.65
X7.975Y-10.675
X8.04Y-56.31
X10.625Y-54.8
X10.925Y-10.75
X13.85Y-10.8
X13.96Y-92.64
X15.275Y-58.3
X16.05Y-89.725
X16.625Y-10.775
X19.188Y-70.212
X19.425Y-10.825
X20.2Y-52.6
X20.53Y-89.45
X20.7Y-55.5
X22.02Y-66.06
X22.175Y-10.85
X23.2Y-49.5
X23.775Y-75.287
X24.72Y-87.32
X25.075Y-10.875
X25.13Y-66.31
X26.125Y-59.075
X32.362Y-50.362
X32.55Y-20.4
X32.925Y-25.725
X33.0Y-14.9
X33.805Y-50.075
X35.05Y-50.95
X35.72Y-91.13
X36.83Y-50.56
X38.84Y-51.225
X41.4Y-8.85
X42.5Y-15.0
X42.65Y-25.65
X45.095Y-70.955
X46.9Y-54.8
X48.15Y-52.575
X48.7Y-57.05
X49.38Y-91.9
X49.51Y-71.16
X49.8Y-57.4
X51.92Y-91.1
X52.4Y-14.925
X52.425Y-25.65
X54.5Y-60.1
X57.95Y-68.8
X58.0Y-56.1
X58.8Y-63.3
X61.0Y-60.6
X61.6Y-58.9
X62.0Y-15.025
X62.125Y-25.65
X63.26Y-9.23
X63.5Y-1.25
X64.5Y-20.39
X68.5Y-16.28
X80.0Y-19.8
X80.35Y-13.35
X80.7Y-6.0
X80.9Y-2.25
X82.14Y-37.46
X85.5Y-35.85
T2
X3.525Y-23.25
X5.95Y-45.7
T3
X10.29Y-27.15
X11.56Y-25.88
X11.56Y-28.42
T4
X5.877Y-80.95
X5.877Y-83.45
X7.877Y-80.95
X7.877Y-83.45
T5
X5.77Y-19.95
X8.31Y-19.95
X10.85Y-19.95
X12.185Y-41.64
X12.345Y-3.485
X12.345Y-6.025
X13.39Y-19.95
X14.725Y-41.64
X14.885Y-3.485
X14.885Y-6.025
X15.93Y-19.95
X17.18Y-92.71
X17.18Y-95.25
X17.265Y-41.64
X17.425Y-3.485
X17.425Y-6.025
X18.47Y-19.95
X19.72Y-92.71
X19.72Y-95.25
X19.805Y-41.64
X19.965Y-3.485
X19.965Y-6.025
X20.55Y-25.6
X20.55Y-33.2
X21.01Y-19.95
X22.26Y-92.71
X22.26Y-95.25
X22.345Y-41.64
X22.505Y-3.485
X22.505Y-6.025
X23.55Y-19.95
X25.045Y-3.485
X25.045Y-6.025
X26.795Y-87.075
X26.845Y-83.1
X27.585Y-3.485
X27.585Y-6.025
X29.335Y-87.075
X29.385Y-83.1
X30.125Y-3.485
X30.125Y-6.025
X30.625Y-93.475
X30.625Y-96.015
X31.875Y-87.075
X31.925Y-83.1
X32.665Y-3.485
X32.665Y-6.025
X33.165Y-93.475
X33.165Y-96.015
X34.415Y-87.075
X34.465Y-83.1
X35.205Y-3.485
X35.205Y-6.025
X35.705Y-93.475
X35.705Y-96.015
X36.955Y-87.075
X37.005Y-83.1
X38.245Y-93.475
X38.245Y-96.015
X38.755Y-37.325
X39.495Y-87.075
X39.545Y-83.1
X40.67Y-43.9
X40.785Y-93.475
X40.785Y-96.015
X41.295Y-37.325
X41.345Y-3.61
X41.345Y-6.15
X42.035Y-87.075
X42.085Y-83.1
X43.21Y-43.9
X43.835Y-37.325
X43.885Y-3.61
X43.885Y-6.15
X44.575Y-87.075
X44.625Y-83.1
X45.75Y-43.9
X46.375Y-37.325
X46.425Y-3.61
X46.425Y-6.15
X48.29Y-43.9
X48.965Y-3.61
X48.965Y-6.15
X49.36Y-83.1
X49.38Y-86.95
X50.83Y-43.9
X51.455Y-37.3
X51.505Y-3.61
X51.505Y-6.15
X51.9Y-83.1
X51.92Y-86.95
X53.16Y-93.49
X53.16Y-96.03
X53.37Y-43.9
X53.995Y-37.3
X54.045Y-3.61
X54.045Y-6.15
X54.44Y-83.1
X54.46Y-86.95
X55.7Y-93.49
X55.7Y-96.03
X55.91Y-43.9
X56.535Y-37.3
X56.585Y-3.61
X56.585Y-6.15
X56.98Y-83.1
X57.0Y-86.95
X58.24Y-93.49
X58.24Y-96.03
X58.45Y-43.9
X59.075Y-37.3
X59.125Y-3.61
X59.125Y-6.15
X59.52Y-83.1
X59.54Y-86.95
X60.78Y-93.49
X60.78Y-96.03
X61.665Y-3.61
X61.665Y-6.15
X62.06Y-83.1
X62.08Y-86.95
X63.32Y-93.49
X63.32Y-96.03
X64.205Y-3.61
X64.205Y-6.15
X64.6Y-83.1
X64.62Y-86.95
X67.14Y-83.1
X67.16Y-86.95
X71.08Y-94.57
X71.08Y-97.11
X73.62Y-94.57
X73.62Y-97.11
X76.16Y-94.57
X76.16Y-97.11
X78.7Y-94.57
X78.7Y-97.11
X82.35Y-42.78
X82.35Y-45.32
X82.35Y-47.86
X82.35Y-50.4
X82.35Y-52.94
X82.35Y-55.48
X82.35Y-58.02
X82.35Y-60.56
X82.35Y-63.1
X82.355Y-67.535
X82.355Y-70.075
X82.355Y-72.615
X82.355Y-75.155
X82.355Y-77.695
X82.355Y-80.235
X82.355Y-82.775
X82.355Y-85.315
X82.91Y-94.58
X82.91Y-97.12
X85.45Y-94.58
X85.45Y-97.12
X86.2Y-42.73
X86.2Y-45.27
X86.2Y-47.81
X86.2Y-50.35
X86.2Y-52.89
X86.2Y-55.43
X86.2Y-57.97
X86.2Y-60.51
X86.2Y-63.05
X86.205Y-67.535
X86.205Y-70.075
X86.205Y-72.615
X86.205Y-75.155
X86.205Y-77.695
X86.205Y-80.235
X86.205Y-82.775
X86.205Y-85.315
X87.99Y-94.58
X87.99Y-97.12
X90.53Y-94.58
X90.53Y-97.12
X93.135Y-47.515
X93.135Y-50.055
X93.135Y-52.595
X93.135Y-55.135
X93.135Y-57.675
X93.44Y-71.44
X93.44Y-73.98
X93.44Y-76.52
X93.44Y-79.06
X93.44Y-81.6
X95.675Y-47.515
X95.675Y-50.055
X95.675Y-52.595
X95.675Y-55.135
X95.675Y-57.675
X95.98Y-71.44
X95.98Y-73.98
X95.98Y-76.52
X95.98Y-79.06
X95.98Y-81.6
T6
X5.095Y-62.3
X5.095Y-67.3
X90.15Y-38.42
X94.54Y-10.46
X94.54Y-15.46
X97.77Y-20.64
X97.77Y-28.26
X97.77Y-38.42
T7
X3.167Y-76.18
X3.167Y-88.22
T8
X4.0Y-4.0
X4.0Y-96.0
X96.0Y-4.0
X96.0Y-96.0
M30
