%TF.GenerationSoftware,KiCad,Pcbnew,9.0.2*%
%TF.CreationDate,2026-02-27T11:04:48-05:00*%
%TF.ProjectId,ENRTENADOR ATMEGA1284P,454e5254-454e-4414-944f-522041544d45,rev?*%
%TF.SameCoordinates,Original*%
%TF.FileFunction,Soldermask,Top*%
%TF.FilePolarity,Negative*%
%FSLAX46Y46*%
G04 Gerber Fmt 4.6, Leading zero omitted, Abs format (unit mm)*
G04 Created by KiCad (PCBNEW 9.0.2) date 2026-02-27 11:04:48*
%MOMM*%
%LPD*%
G01*
G04 APERTURE LIST*
G04 Aperture macros list*
%AMRoundRect*
0 Rectangle with rounded corners*
0 $1 Rounding radius*
0 $2 $3 $4 $5 $6 $7 $8 $9 X,Y pos of 4 corners*
0 Add a 4 corners polygon primitive as box body*
4,1,4,$2,$3,$4,$5,$6,$7,$8,$9,$2,$3,0*
0 Add four circle primitives for the rounded corners*
1,1,$1+$1,$2,$3*
1,1,$1+$1,$4,$5*
1,1,$1+$1,$6,$7*
1,1,$1+$1,$8,$9*
0 Add four rect primitives between the rounded corners*
20,1,$1+$1,$2,$3,$4,$5,0*
20,1,$1+$1,$4,$5,$6,$7,0*
20,1,$1+$1,$6,$7,$8,$9,0*
20,1,$1+$1,$8,$9,$2,$3,0*%
%AMFreePoly0*
4,1,23,0.500000,-0.750000,0.000000,-0.750000,0.000000,-0.745722,-0.065263,-0.745722,-0.191342,-0.711940,-0.304381,-0.646677,-0.396677,-0.554381,-0.461940,-0.441342,-0.495722,-0.315263,-0.495722,-0.250000,-0.500000,-0.250000,-0.500000,0.250000,-0.495722,0.250000,-0.495722,0.315263,-0.461940,0.441342,-0.396677,0.554381,-0.304381,0.646677,-0.191342,0.711940,-0.065263,0.745722,0.000000,0.745722,
0.000000,0.750000,0.500000,0.750000,0.500000,-0.750000,0.500000,-0.750000,$1*%
%AMFreePoly1*
4,1,23,0.000000,0.745722,0.065263,0.745722,0.191342,0.711940,0.304381,0.646677,0.396677,0.554381,0.461940,0.441342,0.495722,0.315263,0.495722,0.250000,0.500000,0.250000,0.500000,-0.250000,0.495722,-0.250000,0.495722,-0.315263,0.461940,-0.441342,0.396677,-0.554381,0.304381,-0.646677,0.191342,-0.711940,0.065263,-0.745722,0.000000,-0.745722,0.000000,-0.750000,-0.500000,-0.750000,
-0.500000,0.750000,0.000000,0.750000,0.000000,0.745722,0.000000,0.745722,$1*%
G04 Aperture macros list end*
%ADD10RoundRect,0.243750X-0.456250X0.243750X-0.456250X-0.243750X0.456250X-0.243750X0.456250X0.243750X0*%
%ADD11R,2.600000X2.600000*%
%ADD12C,2.600000*%
%ADD13R,1.700000X1.700000*%
%ADD14O,1.700000X1.700000*%
%ADD15RoundRect,0.102000X1.250000X-0.600000X1.250000X0.600000X-1.250000X0.600000X-1.250000X-0.600000X0*%
%ADD16R,1.500000X1.500000*%
%ADD17RoundRect,0.250000X0.600000X0.600000X-0.600000X0.600000X-0.600000X-0.600000X0.600000X-0.600000X0*%
%ADD18C,1.700000*%
%ADD19RoundRect,0.150000X0.150000X-0.825000X0.150000X0.825000X-0.150000X0.825000X-0.150000X-0.825000X0*%
%ADD20RoundRect,0.250000X0.250000X0.475000X-0.250000X0.475000X-0.250000X-0.475000X0.250000X-0.475000X0*%
%ADD21RoundRect,0.250000X-0.262500X-0.450000X0.262500X-0.450000X0.262500X0.450000X-0.262500X0.450000X0*%
%ADD22RoundRect,0.250000X0.312500X0.625000X-0.312500X0.625000X-0.312500X-0.625000X0.312500X-0.625000X0*%
%ADD23RoundRect,0.243750X0.456250X-0.243750X0.456250X0.243750X-0.456250X0.243750X-0.456250X-0.243750X0*%
%ADD24R,2.000000X4.500000*%
%ADD25R,1.300000X1.300000*%
%ADD26C,1.300000*%
%ADD27RoundRect,0.250000X-0.650000X1.000000X-0.650000X-1.000000X0.650000X-1.000000X0.650000X1.000000X0*%
%ADD28FreePoly0,180.000000*%
%ADD29FreePoly1,180.000000*%
%ADD30RoundRect,0.250000X0.475000X-0.250000X0.475000X0.250000X-0.475000X0.250000X-0.475000X-0.250000X0*%
%ADD31RoundRect,0.250000X-0.350000X0.850000X-0.350000X-0.850000X0.350000X-0.850000X0.350000X0.850000X0*%
%ADD32RoundRect,0.249997X-2.650003X2.950003X-2.650003X-2.950003X2.650003X-2.950003X2.650003X2.950003X0*%
%ADD33RoundRect,0.250000X-0.475000X0.250000X-0.475000X-0.250000X0.475000X-0.250000X0.475000X0.250000X0*%
%ADD34RoundRect,0.250000X0.450000X-0.262500X0.450000X0.262500X-0.450000X0.262500X-0.450000X-0.262500X0*%
%ADD35RoundRect,0.250000X1.000000X0.650000X-1.000000X0.650000X-1.000000X-0.650000X1.000000X-0.650000X0*%
%ADD36RoundRect,0.250000X0.600000X-0.600000X0.600000X0.600000X-0.600000X0.600000X-0.600000X-0.600000X0*%
%ADD37C,3.500000*%
%ADD38C,5.700000*%
%ADD39R,1.200000X1.200000*%
%ADD40R,1.500000X1.600000*%
%ADD41RoundRect,0.250000X-0.250000X-0.475000X0.250000X-0.475000X0.250000X0.475000X-0.250000X0.475000X0*%
%ADD42RoundRect,0.250000X0.262500X0.450000X-0.262500X0.450000X-0.262500X-0.450000X0.262500X-0.450000X0*%
%ADD43RoundRect,0.137500X-0.600000X-0.137500X0.600000X-0.137500X0.600000X0.137500X-0.600000X0.137500X0*%
%ADD44RoundRect,0.137500X-0.137500X-0.600000X0.137500X-0.600000X0.137500X0.600000X-0.137500X0.600000X0*%
%ADD45RoundRect,0.243750X0.243750X0.456250X-0.243750X0.456250X-0.243750X-0.456250X0.243750X-0.456250X0*%
%ADD46R,2.000000X2.000000*%
%ADD47C,2.000000*%
%ADD48RoundRect,0.375000X0.375000X-0.625000X0.375000X0.625000X-0.375000X0.625000X-0.375000X-0.625000X0*%
%ADD49RoundRect,0.500000X1.400000X-0.500000X1.400000X0.500000X-1.400000X0.500000X-1.400000X-0.500000X0*%
%ADD50R,2.300000X2.300000*%
%ADD51C,2.300000*%
G04 APERTURE END LIST*
D10*
%TO.C,D9*%
X22200000Y-12475000D03*
X22200000Y-14350000D03*
%TD*%
%TO.C,D10*%
X19400000Y-12475000D03*
X19400000Y-14350000D03*
%TD*%
D11*
%TO.C,J1*%
X5095000Y-62300000D03*
D12*
X5095000Y-67300000D03*
%TD*%
D13*
%TO.C,J8*%
X58450000Y-43900000D03*
D14*
X55910000Y-43900000D03*
X53370000Y-43900000D03*
X50830000Y-43900000D03*
X48290000Y-43900000D03*
X45750000Y-43900000D03*
X43210000Y-43900000D03*
X40670000Y-43900000D03*
%TD*%
D15*
%TO.C,S4*%
X35650000Y-28225000D03*
X35650000Y-25725000D03*
X35650000Y-23225000D03*
X30150000Y-28225000D03*
X30150000Y-25725000D03*
X30150000Y-23225000D03*
%TD*%
D16*
%TO.C,BT1*%
X77400000Y-43170000D03*
X69600000Y-43170000D03*
%TD*%
D17*
%TO.C,J17*%
X95675000Y-57675000D03*
D18*
X93135000Y-57675000D03*
X95675000Y-55135000D03*
X93135000Y-55135000D03*
X95675000Y-52595000D03*
X93135000Y-52595000D03*
X95675000Y-50055000D03*
X93135000Y-50055000D03*
X95675000Y-47515000D03*
X93135000Y-47515000D03*
%TD*%
D19*
%TO.C,U1*%
X13490000Y-87810000D03*
X14760000Y-87810000D03*
X16030000Y-87810000D03*
X17300000Y-87810000D03*
X18570000Y-87810000D03*
X19840000Y-87810000D03*
X21110000Y-87810000D03*
X22380000Y-87810000D03*
X22380000Y-82860000D03*
X21110000Y-82860000D03*
X19840000Y-82860000D03*
X18570000Y-82860000D03*
X17300000Y-82860000D03*
X16030000Y-82860000D03*
X14760000Y-82860000D03*
X13490000Y-82860000D03*
%TD*%
D20*
%TO.C,C2*%
X4250000Y-71500000D03*
X2350000Y-71500000D03*
%TD*%
D21*
%TO.C,R3*%
X19175000Y-79500000D03*
X21000000Y-79500000D03*
%TD*%
D16*
%TO.C,BT8*%
X77400000Y-4020000D03*
X69600000Y-4020000D03*
%TD*%
D22*
%TO.C,R9*%
X23392500Y-38470000D03*
X20467500Y-38470000D03*
%TD*%
D10*
%TO.C,D12*%
X13850000Y-12537500D03*
X13850000Y-14412500D03*
%TD*%
D16*
%TO.C,BT4*%
X77400000Y-26250000D03*
X69600000Y-26250000D03*
%TD*%
D23*
%TO.C,D5*%
X34900000Y-69385000D03*
X34900000Y-67510000D03*
%TD*%
D13*
%TO.C,J20*%
X86200000Y-42730000D03*
D14*
X86200000Y-45270000D03*
X86200000Y-47810000D03*
X86200000Y-50350000D03*
X86200000Y-52890000D03*
X86200000Y-55430000D03*
X86200000Y-57970000D03*
X86200000Y-60510000D03*
X86200000Y-63050000D03*
%TD*%
D13*
%TO.C,J10*%
X23550000Y-19950000D03*
D14*
X21010000Y-19950000D03*
X18470000Y-19950000D03*
X15930000Y-19950000D03*
X13390000Y-19950000D03*
X10850000Y-19950000D03*
X8310000Y-19950000D03*
X5770000Y-19950000D03*
%TD*%
D24*
%TO.C,Y1*%
X40600000Y-64000000D03*
X40600000Y-55500000D03*
%TD*%
D25*
%TO.C,Q2*%
X11560000Y-25880000D03*
D26*
X10290000Y-27150000D03*
X11560000Y-28420000D03*
%TD*%
D27*
%TO.C,D1*%
X23200000Y-52600000D03*
X23200000Y-56600000D03*
%TD*%
D28*
%TO.C,JP2*%
X45825000Y-58550000D03*
D29*
X44525000Y-58550000D03*
%TD*%
D16*
%TO.C,BT5*%
X77400000Y-20700000D03*
X69600000Y-20700000D03*
%TD*%
D30*
%TO.C,C5*%
X15960000Y-55520000D03*
X15960000Y-53620000D03*
%TD*%
D17*
%TO.C,J19*%
X95980000Y-81600000D03*
D18*
X93440000Y-81600000D03*
X95980000Y-79060000D03*
X93440000Y-79060000D03*
X95980000Y-76520000D03*
X93440000Y-76520000D03*
X95980000Y-73980000D03*
X93440000Y-73980000D03*
X95980000Y-71440000D03*
X93440000Y-71440000D03*
%TD*%
D13*
%TO.C,PORTD1*%
X49360000Y-83100000D03*
D14*
X51900000Y-83100000D03*
X54440000Y-83100000D03*
X56980000Y-83100000D03*
X59520000Y-83100000D03*
X62060000Y-83100000D03*
X64600000Y-83100000D03*
X67140000Y-83100000D03*
%TD*%
D31*
%TO.C,U2*%
X17110000Y-62950000D03*
X14830000Y-62950000D03*
D32*
X14830000Y-69250000D03*
D31*
X12550000Y-62950000D03*
%TD*%
D13*
%TO.C,J7*%
X35205000Y-3485000D03*
D14*
X35205000Y-6025000D03*
X32665000Y-3485000D03*
X32665000Y-6025000D03*
X30125000Y-3485000D03*
X30125000Y-6025000D03*
X27585000Y-3485000D03*
X27585000Y-6025000D03*
X25045000Y-3485000D03*
X25045000Y-6025000D03*
X22505000Y-3485000D03*
X22505000Y-6025000D03*
X19965000Y-3485000D03*
X19965000Y-6025000D03*
X17425000Y-3485000D03*
X17425000Y-6025000D03*
X14885000Y-3485000D03*
X14885000Y-6025000D03*
X12345000Y-3485000D03*
X12345000Y-6025000D03*
%TD*%
D21*
%TO.C,R4*%
X22160000Y-73450000D03*
X23985000Y-73450000D03*
%TD*%
D13*
%TO.C,J13*%
X82350000Y-42780000D03*
D14*
X82350000Y-45320000D03*
X82350000Y-47860000D03*
X82350000Y-50400000D03*
X82350000Y-52940000D03*
X82350000Y-55480000D03*
X82350000Y-58020000D03*
X82350000Y-60560000D03*
X82350000Y-63100000D03*
%TD*%
D33*
%TO.C,C8*%
X12975000Y-49425000D03*
X12975000Y-51325000D03*
%TD*%
D13*
%TO.C,J16*%
X49380000Y-86950000D03*
D14*
X51920000Y-86950000D03*
X54460000Y-86950000D03*
X57000000Y-86950000D03*
X59540000Y-86950000D03*
X62080000Y-86950000D03*
X64620000Y-86950000D03*
X67160000Y-86950000D03*
%TD*%
D20*
%TO.C,C15*%
X36775000Y-55500000D03*
X34875000Y-55500000D03*
%TD*%
D13*
%TO.C,J3*%
X12185000Y-41640000D03*
D14*
X14725000Y-41640000D03*
X17265000Y-41640000D03*
X19805000Y-41640000D03*
X22345000Y-41640000D03*
%TD*%
D16*
%TO.C,SW1*%
X10180000Y-53080000D03*
X2380000Y-53080000D03*
%TD*%
D28*
%TO.C,JP1*%
X45900000Y-62850000D03*
D29*
X44600000Y-62850000D03*
%TD*%
D34*
%TO.C,R8*%
X15500000Y-51300000D03*
X15500000Y-49475000D03*
%TD*%
D35*
%TO.C,D2*%
X17390000Y-75370000D03*
X13390000Y-75370000D03*
%TD*%
D13*
%TO.C,PORTC1*%
X82355000Y-85315000D03*
D14*
X82355000Y-82775000D03*
X82355000Y-80235000D03*
X82355000Y-77695000D03*
X82355000Y-75155000D03*
X82355000Y-72615000D03*
X82355000Y-70075000D03*
X82355000Y-67535000D03*
%TD*%
D36*
%TO.C,J24*%
X53160000Y-96030000D03*
D18*
X53160000Y-93490000D03*
X55700000Y-96030000D03*
X55700000Y-93490000D03*
X58240000Y-96030000D03*
X58240000Y-93490000D03*
X60780000Y-96030000D03*
X60780000Y-93490000D03*
X63320000Y-96030000D03*
X63320000Y-93490000D03*
%TD*%
D30*
%TO.C,C4*%
X13350000Y-55500000D03*
X13350000Y-53600000D03*
%TD*%
D13*
%TO.C,J6*%
X64205000Y-3610000D03*
D14*
X64205000Y-6150000D03*
X61665000Y-3610000D03*
X61665000Y-6150000D03*
X59125000Y-3610000D03*
X59125000Y-6150000D03*
X56585000Y-3610000D03*
X56585000Y-6150000D03*
X54045000Y-3610000D03*
X54045000Y-6150000D03*
X51505000Y-3610000D03*
X51505000Y-6150000D03*
X48965000Y-3610000D03*
X48965000Y-6150000D03*
X46425000Y-3610000D03*
X46425000Y-6150000D03*
X43885000Y-3610000D03*
X43885000Y-6150000D03*
X41345000Y-3610000D03*
X41345000Y-6150000D03*
%TD*%
D13*
%TO.C,J21*%
X7877500Y-83450000D03*
D18*
X7877500Y-80950000D03*
X5877500Y-80950000D03*
X5877500Y-83450000D03*
D37*
X3167500Y-88220000D03*
X3167500Y-76180000D03*
%TD*%
D38*
%TO.C,REF\u002A\u002A*%
X96000000Y-96000000D03*
%TD*%
D39*
%TO.C,RV4*%
X2120000Y-28840000D03*
D40*
X5370000Y-29840000D03*
D39*
X2120000Y-30840000D03*
%TD*%
D15*
%TO.C,S8*%
X35700000Y-17450000D03*
X35700000Y-14950000D03*
X35700000Y-12450000D03*
X30200000Y-17450000D03*
X30200000Y-14950000D03*
X30200000Y-12450000D03*
%TD*%
D33*
%TO.C,C7*%
X28100000Y-56050000D03*
X28100000Y-57950000D03*
%TD*%
D15*
%TO.C,S1*%
X64575000Y-28150000D03*
X64575000Y-25650000D03*
X64575000Y-23150000D03*
X59075000Y-28150000D03*
X59075000Y-25650000D03*
X59075000Y-23150000D03*
%TD*%
D10*
%TO.C,D11*%
X16625000Y-12525000D03*
X16625000Y-14400000D03*
%TD*%
D41*
%TO.C,C11*%
X28255000Y-63030000D03*
X30155000Y-63030000D03*
%TD*%
D42*
%TO.C,R1*%
X28912500Y-78000000D03*
X27087500Y-78000000D03*
%TD*%
D16*
%TO.C,BT2*%
X77400000Y-37430000D03*
X69600000Y-37430000D03*
%TD*%
D41*
%TO.C,C13*%
X67150000Y-60600000D03*
X69050000Y-60600000D03*
%TD*%
D15*
%TO.C,S6*%
X55150000Y-17450000D03*
X55150000Y-14950000D03*
X55150000Y-12450000D03*
X49650000Y-17450000D03*
X49650000Y-14950000D03*
X49650000Y-12450000D03*
%TD*%
D34*
%TO.C,R7*%
X32830000Y-69372500D03*
X32830000Y-67547500D03*
%TD*%
D10*
%TO.C,D8*%
X25075000Y-12475000D03*
X25075000Y-14350000D03*
%TD*%
D42*
%TO.C,R2*%
X32320000Y-73440000D03*
X30495000Y-73440000D03*
%TD*%
D11*
%TO.C,J9*%
X94540000Y-15460000D03*
D12*
X94540000Y-10460000D03*
%TD*%
D13*
%TO.C,J4*%
X59075000Y-37300000D03*
D14*
X56535000Y-37300000D03*
X53995000Y-37300000D03*
X51455000Y-37300000D03*
%TD*%
D20*
%TO.C,C14*%
X36500000Y-64075000D03*
X34600000Y-64075000D03*
%TD*%
D33*
%TO.C,C6*%
X26000000Y-56050000D03*
X26000000Y-57950000D03*
%TD*%
D20*
%TO.C,C17*%
X6875000Y-49665000D03*
X4975000Y-49665000D03*
%TD*%
D41*
%TO.C,C1*%
X6550000Y-71500000D03*
X8450000Y-71500000D03*
%TD*%
D10*
%TO.C,D13*%
X10900000Y-12525000D03*
X10900000Y-14400000D03*
%TD*%
D15*
%TO.C,S7*%
X45250000Y-17450000D03*
X45250000Y-14950000D03*
X45250000Y-12450000D03*
X39750000Y-17450000D03*
X39750000Y-14950000D03*
X39750000Y-12450000D03*
%TD*%
%TO.C,S3*%
X45425000Y-28150000D03*
X45425000Y-25650000D03*
X45425000Y-23150000D03*
X39925000Y-28150000D03*
X39925000Y-25650000D03*
X39925000Y-23150000D03*
%TD*%
D38*
%TO.C,REF\u002A\u002A*%
X4000000Y-4000000D03*
%TD*%
D13*
%TO.C,ICSP1*%
X22260000Y-92710000D03*
D14*
X22260000Y-95250000D03*
X19720000Y-92710000D03*
X19720000Y-95250000D03*
X17180000Y-92710000D03*
X17180000Y-95250000D03*
%TD*%
D43*
%TO.C,U4*%
X52337500Y-55800000D03*
X52337500Y-56600000D03*
X52337500Y-57400000D03*
X52337500Y-58200000D03*
X52337500Y-59000000D03*
X52337500Y-59800000D03*
X52337500Y-60600000D03*
X52337500Y-61400000D03*
X52337500Y-62200000D03*
X52337500Y-63000000D03*
X52337500Y-63800000D03*
D44*
X54000000Y-65462500D03*
X54800000Y-65462500D03*
X55600000Y-65462500D03*
X56400000Y-65462500D03*
X57200000Y-65462500D03*
X58000000Y-65462500D03*
X58800000Y-65462500D03*
X59600000Y-65462500D03*
X60400000Y-65462500D03*
X61200000Y-65462500D03*
X62000000Y-65462500D03*
D43*
X63662500Y-63800000D03*
X63662500Y-63000000D03*
X63662500Y-62200000D03*
X63662500Y-61400000D03*
X63662500Y-60600000D03*
X63662500Y-59800000D03*
X63662500Y-59000000D03*
X63662500Y-58200000D03*
X63662500Y-57400000D03*
X63662500Y-56600000D03*
X63662500Y-55800000D03*
D44*
X62000000Y-54137500D03*
X61200000Y-54137500D03*
X60400000Y-54137500D03*
X59600000Y-54137500D03*
X58800000Y-54137500D03*
X58000000Y-54137500D03*
X57200000Y-54137500D03*
X56400000Y-54137500D03*
X55600000Y-54137500D03*
X54800000Y-54137500D03*
X54000000Y-54137500D03*
%TD*%
D16*
%TO.C,BT7*%
X77400000Y-9470000D03*
X69600000Y-9470000D03*
%TD*%
D33*
%TO.C,C3*%
X11575000Y-90950000D03*
X11575000Y-92850000D03*
%TD*%
D38*
%TO.C,REF\u002A\u002A*%
X96000000Y-4000000D03*
%TD*%
D10*
%TO.C,D15*%
X4950000Y-12575000D03*
X4950000Y-14450000D03*
%TD*%
D39*
%TO.C,RV3*%
X2090000Y-33360000D03*
D40*
X5340000Y-34360000D03*
D39*
X2090000Y-35360000D03*
%TD*%
D13*
%TO.C,J14*%
X26845000Y-83100000D03*
D14*
X29385000Y-83100000D03*
X31925000Y-83100000D03*
X34465000Y-83100000D03*
X37005000Y-83100000D03*
X39545000Y-83100000D03*
X42085000Y-83100000D03*
X44625000Y-83100000D03*
%TD*%
D15*
%TO.C,S5*%
X64600000Y-17500000D03*
X64600000Y-15000000D03*
X64600000Y-12500000D03*
X59100000Y-17500000D03*
X59100000Y-15000000D03*
X59100000Y-12500000D03*
%TD*%
D38*
%TO.C,REF\u002A\u002A*%
X4000000Y-96000000D03*
%TD*%
D30*
%TO.C,C16*%
X10150000Y-58200000D03*
X10150000Y-56300000D03*
%TD*%
D36*
%TO.C,J18*%
X30625000Y-96015000D03*
D18*
X30625000Y-93475000D03*
X33165000Y-96015000D03*
X33165000Y-93475000D03*
X35705000Y-96015000D03*
X35705000Y-93475000D03*
X38245000Y-96015000D03*
X38245000Y-93475000D03*
X40785000Y-96015000D03*
X40785000Y-93475000D03*
%TD*%
D13*
%TO.C,J5*%
X46375000Y-37325000D03*
D14*
X43835000Y-37325000D03*
X41295000Y-37325000D03*
X38755000Y-37325000D03*
%TD*%
D45*
%TO.C,D4*%
X27905000Y-73490000D03*
X26030000Y-73490000D03*
%TD*%
D46*
%TO.C,BZ1*%
X20550000Y-33200000D03*
D47*
X20550000Y-25600000D03*
%TD*%
D39*
%TO.C,RV1*%
X2090000Y-41670000D03*
D40*
X5340000Y-42670000D03*
D39*
X2090000Y-43670000D03*
%TD*%
D13*
%TO.C,J11*%
X78700000Y-94570000D03*
D14*
X78700000Y-97110000D03*
X76160000Y-94570000D03*
X76160000Y-97110000D03*
X73620000Y-94570000D03*
X73620000Y-97110000D03*
X71080000Y-94570000D03*
X71080000Y-97110000D03*
%TD*%
D33*
%TO.C,C12*%
X17500000Y-49450000D03*
X17500000Y-51350000D03*
%TD*%
%TO.C,C10*%
X30680000Y-67560000D03*
X30680000Y-69460000D03*
%TD*%
D45*
%TO.C,D3*%
X24937500Y-78000000D03*
X23062500Y-78000000D03*
%TD*%
D16*
%TO.C,BT3*%
X77400000Y-31880000D03*
X69600000Y-31880000D03*
%TD*%
D13*
%TO.C,J15*%
X86205000Y-85315000D03*
D14*
X86205000Y-82775000D03*
X86205000Y-80235000D03*
X86205000Y-77695000D03*
X86205000Y-75155000D03*
X86205000Y-72615000D03*
X86205000Y-70075000D03*
X86205000Y-67535000D03*
%TD*%
D48*
%TO.C,U3*%
X21225000Y-69600000D03*
X23525000Y-69600000D03*
D49*
X23525000Y-63300000D03*
D48*
X25825000Y-69600000D03*
%TD*%
D16*
%TO.C,BT6*%
X77400000Y-15070000D03*
X69600000Y-15070000D03*
%TD*%
D39*
%TO.C,RV2*%
X2090000Y-37480000D03*
D40*
X5340000Y-38480000D03*
D39*
X2090000Y-39480000D03*
%TD*%
D10*
%TO.C,D14*%
X7950000Y-12550000D03*
X7950000Y-14425000D03*
%TD*%
D30*
%TO.C,C9*%
X28530000Y-69450000D03*
X28530000Y-67550000D03*
%TD*%
D15*
%TO.C,S2*%
X55175000Y-28150000D03*
X55175000Y-25650000D03*
X55175000Y-23150000D03*
X49675000Y-28150000D03*
X49675000Y-25650000D03*
X49675000Y-23150000D03*
%TD*%
D50*
%TO.C,K1*%
X97770000Y-38420000D03*
D51*
X97770000Y-28260000D03*
X97770000Y-20640000D03*
X90150000Y-38420000D03*
%TD*%
D13*
%TO.C,PORTB1*%
X26795000Y-87075000D03*
D14*
X29335000Y-87075000D03*
X31875000Y-87075000D03*
X34415000Y-87075000D03*
X36955000Y-87075000D03*
X39495000Y-87075000D03*
X42035000Y-87075000D03*
X44575000Y-87075000D03*
%TD*%
D13*
%TO.C,J12*%
X90530000Y-94580000D03*
D14*
X90530000Y-97120000D03*
X87990000Y-94580000D03*
X87990000Y-97120000D03*
X85450000Y-94580000D03*
X85450000Y-97120000D03*
X82910000Y-94580000D03*
X82910000Y-97120000D03*
%TD*%
M02*
