%TF.GenerationSoftware,KiCad,Pcbnew,8.0.4*%
%TF.CreationDate,2025-03-19T03:37:00-05:00*%
%TF.ProjectId,ENRTENADOR ATMEGA1284P,454e5254-454e-4414-944f-522041544d45,rev?*%
%TF.SameCoordinates,Original*%
%TF.FileFunction,Paste,Bot*%
%TF.FilePolarity,Positive*%
%FSLAX46Y46*%
G04 Gerber Fmt 4.6, Leading zero omitted, Abs format (unit mm)*
G04 Created by KiCad (PCBNEW 8.0.4) date 2025-03-19 03:37:00*
%MOMM*%
%LPD*%
G01*
G04 APERTURE LIST*
G04 Aperture macros list*
%AMRoundRect*
0 Rectangle with rounded corners*
0 $1 Rounding radius*
0 $2 $3 $4 $5 $6 $7 $8 $9 X,Y pos of 4 corners*
0 Add a 4 corners polygon primitive as box body*
4,1,4,$2,$3,$4,$5,$6,$7,$8,$9,$2,$3,0*
0 Add four circle primitives for the rounded corners*
1,1,$1+$1,$2,$3*
1,1,$1+$1,$4,$5*
1,1,$1+$1,$6,$7*
1,1,$1+$1,$8,$9*
0 Add four rect primitives between the rounded corners*
20,1,$1+$1,$2,$3,$4,$5,0*
20,1,$1+$1,$4,$5,$6,$7,0*
20,1,$1+$1,$6,$7,$8,$9,0*
20,1,$1+$1,$8,$9,$2,$3,0*%
G04 Aperture macros list end*
%ADD10RoundRect,0.250000X0.450000X-0.262500X0.450000X0.262500X-0.450000X0.262500X-0.450000X-0.262500X0*%
%ADD11RoundRect,0.250000X-1.000000X-0.650000X1.000000X-0.650000X1.000000X0.650000X-1.000000X0.650000X0*%
%ADD12RoundRect,0.250000X0.262500X0.450000X-0.262500X0.450000X-0.262500X-0.450000X0.262500X-0.450000X0*%
%ADD13RoundRect,0.250000X0.312500X0.625000X-0.312500X0.625000X-0.312500X-0.625000X0.312500X-0.625000X0*%
%ADD14RoundRect,0.250000X0.250000X0.475000X-0.250000X0.475000X-0.250000X-0.475000X0.250000X-0.475000X0*%
%ADD15RoundRect,0.250000X-0.450000X0.262500X-0.450000X-0.262500X0.450000X-0.262500X0.450000X0.262500X0*%
%ADD16RoundRect,0.250000X-0.262500X-0.450000X0.262500X-0.450000X0.262500X0.450000X-0.262500X0.450000X0*%
%ADD17RoundRect,0.150000X0.150000X-0.512500X0.150000X0.512500X-0.150000X0.512500X-0.150000X-0.512500X0*%
%ADD18RoundRect,0.243750X-0.243750X-0.456250X0.243750X-0.456250X0.243750X0.456250X-0.243750X0.456250X0*%
G04 APERTURE END LIST*
D10*
%TO.C,R14*%
X40400000Y-33350000D03*
X40400000Y-31525000D03*
%TD*%
D11*
%TO.C,D7*%
X92050000Y-33680000D03*
X96050000Y-33680000D03*
%TD*%
D10*
%TO.C,R21*%
X25075000Y-13912500D03*
X25075000Y-12087500D03*
%TD*%
D12*
%TO.C,R35*%
X71245000Y-64355000D03*
X69420000Y-64355000D03*
%TD*%
%TO.C,R31*%
X71245000Y-54230000D03*
X69420000Y-54230000D03*
%TD*%
D10*
%TO.C,R22*%
X22175000Y-13912500D03*
X22175000Y-12087500D03*
%TD*%
D12*
%TO.C,R36*%
X71245000Y-66830000D03*
X69420000Y-66830000D03*
%TD*%
D13*
%TO.C,R38*%
X94962500Y-65000000D03*
X92037500Y-65000000D03*
%TD*%
D12*
%TO.C,R33*%
X71245000Y-59555000D03*
X69420000Y-59555000D03*
%TD*%
D10*
%TO.C,R23*%
X19425000Y-13912500D03*
X19425000Y-12087500D03*
%TD*%
%TO.C,R24*%
X16625000Y-13912500D03*
X16625000Y-12087500D03*
%TD*%
%TO.C,R26*%
X10925000Y-13912500D03*
X10925000Y-12087500D03*
%TD*%
D14*
%TO.C,C19*%
X76490000Y-50190000D03*
X74590000Y-50190000D03*
%TD*%
D10*
%TO.C,R27*%
X7950000Y-13912500D03*
X7950000Y-12087500D03*
%TD*%
D14*
%TO.C,C23*%
X76490000Y-62230000D03*
X74590000Y-62230000D03*
%TD*%
D12*
%TO.C,R30*%
X71220000Y-51680000D03*
X69395000Y-51680000D03*
%TD*%
%TO.C,R34*%
X71245000Y-61980000D03*
X69420000Y-61980000D03*
%TD*%
D14*
%TO.C,C18*%
X76490000Y-47180000D03*
X74590000Y-47180000D03*
%TD*%
D15*
%TO.C,R18*%
X36125000Y-31525000D03*
X36125000Y-33350000D03*
%TD*%
%TO.C,R17*%
X60250000Y-31925000D03*
X60250000Y-33750000D03*
%TD*%
D12*
%TO.C,R32*%
X71245000Y-56905000D03*
X69420000Y-56905000D03*
%TD*%
D14*
%TO.C,C22*%
X76490000Y-59220000D03*
X74590000Y-59220000D03*
%TD*%
%TO.C,C20*%
X76490000Y-53200000D03*
X74590000Y-53200000D03*
%TD*%
D12*
%TO.C,R29*%
X71195000Y-49105000D03*
X69370000Y-49105000D03*
%TD*%
D16*
%TO.C,R10*%
X69237500Y-12210000D03*
X71062500Y-12210000D03*
%TD*%
D10*
%TO.C,R28*%
X4950000Y-13912500D03*
X4950000Y-12087500D03*
%TD*%
D15*
%TO.C,R12*%
X74450000Y-7347500D03*
X74450000Y-9172500D03*
%TD*%
D14*
%TO.C,C25*%
X76490000Y-68250000D03*
X74590000Y-68250000D03*
%TD*%
D17*
%TO.C,Q1*%
X71062500Y-9417500D03*
X69162500Y-9417500D03*
X70112500Y-7142500D03*
%TD*%
D14*
%TO.C,C21*%
X76490000Y-56210000D03*
X74590000Y-56210000D03*
%TD*%
D15*
%TO.C,R19*%
X58075000Y-31925000D03*
X58075000Y-33750000D03*
%TD*%
D10*
%TO.C,R25*%
X13850000Y-13912500D03*
X13850000Y-12087500D03*
%TD*%
D15*
%TO.C,R15*%
X38275000Y-31525000D03*
X38275000Y-33350000D03*
%TD*%
%TO.C,R20*%
X34000000Y-31500000D03*
X34000000Y-33325000D03*
%TD*%
%TO.C,R16*%
X62425000Y-31900000D03*
X62425000Y-33725000D03*
%TD*%
D14*
%TO.C,C24*%
X76490000Y-65240000D03*
X74590000Y-65240000D03*
%TD*%
D16*
%TO.C,R11*%
X69275000Y-14730000D03*
X71100000Y-14730000D03*
%TD*%
D10*
%TO.C,R13*%
X64600000Y-33750000D03*
X64600000Y-31925000D03*
%TD*%
D13*
%TO.C,R37*%
X95000000Y-62000000D03*
X92075000Y-62000000D03*
%TD*%
D18*
%TO.C,D6*%
X73382500Y-12290000D03*
X75257500Y-12290000D03*
%TD*%
M02*
