%TF.GenerationSoftware,KiCad,Pcbnew,8.0.4*%
%TF.CreationDate,2025-03-19T03:37:00-05:00*%
%TF.ProjectId,ENRTENADOR ATMEGA1284P,454e5254-454e-4414-944f-522041544d45,rev?*%
%TF.SameCoordinates,Original*%
%TF.FileFunction,Paste,Top*%
%TF.FilePolarity,Positive*%
%FSLAX46Y46*%
G04 Gerber Fmt 4.6, Leading zero omitted, Abs format (unit mm)*
G04 Created by KiCad (PCBNEW 8.0.4) date 2025-03-19 03:37:00*
%MOMM*%
%LPD*%
G01*
G04 APERTURE LIST*
G04 Aperture macros list*
%AMRoundRect*
0 Rectangle with rounded corners*
0 $1 Rounding radius*
0 $2 $3 $4 $5 $6 $7 $8 $9 X,Y pos of 4 corners*
0 Add a 4 corners polygon primitive as box body*
4,1,4,$2,$3,$4,$5,$6,$7,$8,$9,$2,$3,0*
0 Add four circle primitives for the rounded corners*
1,1,$1+$1,$2,$3*
1,1,$1+$1,$4,$5*
1,1,$1+$1,$6,$7*
1,1,$1+$1,$8,$9*
0 Add four rect primitives between the rounded corners*
20,1,$1+$1,$2,$3,$4,$5,0*
20,1,$1+$1,$4,$5,$6,$7,0*
20,1,$1+$1,$6,$7,$8,$9,0*
20,1,$1+$1,$8,$9,$2,$3,0*%
G04 Aperture macros list end*
%ADD10RoundRect,0.243750X-0.456250X0.243750X-0.456250X-0.243750X0.456250X-0.243750X0.456250X0.243750X0*%
%ADD11R,2.500000X1.200000*%
%ADD12R,1.500000X1.500000*%
%ADD13RoundRect,0.150000X0.150000X-0.825000X0.150000X0.825000X-0.150000X0.825000X-0.150000X-0.825000X0*%
%ADD14RoundRect,0.250000X0.250000X0.475000X-0.250000X0.475000X-0.250000X-0.475000X0.250000X-0.475000X0*%
%ADD15RoundRect,0.250000X-0.262500X-0.450000X0.262500X-0.450000X0.262500X0.450000X-0.262500X0.450000X0*%
%ADD16RoundRect,0.250000X0.312500X0.625000X-0.312500X0.625000X-0.312500X-0.625000X0.312500X-0.625000X0*%
%ADD17RoundRect,0.243750X0.456250X-0.243750X0.456250X0.243750X-0.456250X0.243750X-0.456250X-0.243750X0*%
%ADD18R,2.000000X4.500000*%
%ADD19RoundRect,0.250000X0.475000X-0.250000X0.475000X0.250000X-0.475000X0.250000X-0.475000X-0.250000X0*%
%ADD20RoundRect,0.250000X-0.350000X0.850000X-0.350000X-0.850000X0.350000X-0.850000X0.350000X0.850000X0*%
%ADD21RoundRect,0.250000X-1.125000X1.275000X-1.125000X-1.275000X1.125000X-1.275000X1.125000X1.275000X0*%
%ADD22RoundRect,0.250000X-0.475000X0.250000X-0.475000X-0.250000X0.475000X-0.250000X0.475000X0.250000X0*%
%ADD23R,1.500000X0.550000*%
%ADD24R,0.550000X1.500000*%
%ADD25RoundRect,0.250000X0.450000X-0.262500X0.450000X0.262500X-0.450000X0.262500X-0.450000X-0.262500X0*%
%ADD26RoundRect,0.250000X1.000000X0.650000X-1.000000X0.650000X-1.000000X-0.650000X1.000000X-0.650000X0*%
%ADD27R,1.200000X1.200000*%
%ADD28R,1.500000X1.600000*%
%ADD29RoundRect,0.250000X-0.250000X-0.475000X0.250000X-0.475000X0.250000X0.475000X-0.250000X0.475000X0*%
%ADD30RoundRect,0.250000X0.262500X0.450000X-0.262500X0.450000X-0.262500X-0.450000X0.262500X-0.450000X0*%
%ADD31R,1.150000X0.300000*%
%ADD32RoundRect,0.243750X0.243750X0.456250X-0.243750X0.456250X-0.243750X-0.456250X0.243750X-0.456250X0*%
%ADD33RoundRect,0.375000X0.375000X-0.625000X0.375000X0.625000X-0.375000X0.625000X-0.375000X-0.625000X0*%
%ADD34RoundRect,0.500000X1.400000X-0.500000X1.400000X0.500000X-1.400000X0.500000X-1.400000X-0.500000X0*%
G04 APERTURE END LIST*
D10*
%TO.C,D9*%
X22200000Y-12475000D03*
X22200000Y-14350000D03*
%TD*%
%TO.C,D10*%
X19400000Y-12475000D03*
X19400000Y-14350000D03*
%TD*%
D11*
%TO.C,S4*%
X35650000Y-28225000D03*
X35650000Y-25725000D03*
X35650000Y-23225000D03*
X30150000Y-28225000D03*
X30150000Y-25725000D03*
X30150000Y-23225000D03*
%TD*%
D12*
%TO.C,BT1*%
X77400000Y-43170000D03*
X69600000Y-43170000D03*
%TD*%
D13*
%TO.C,U1*%
X13490000Y-87810000D03*
X14760000Y-87810000D03*
X16030000Y-87810000D03*
X17300000Y-87810000D03*
X18570000Y-87810000D03*
X19840000Y-87810000D03*
X21110000Y-87810000D03*
X22380000Y-87810000D03*
X22380000Y-82860000D03*
X21110000Y-82860000D03*
X19840000Y-82860000D03*
X18570000Y-82860000D03*
X17300000Y-82860000D03*
X16030000Y-82860000D03*
X14760000Y-82860000D03*
X13490000Y-82860000D03*
%TD*%
D14*
%TO.C,C2*%
X9110000Y-79680000D03*
X7210000Y-79680000D03*
%TD*%
D15*
%TO.C,R3*%
X19175000Y-79500000D03*
X21000000Y-79500000D03*
%TD*%
D12*
%TO.C,BT8*%
X77400000Y-4020000D03*
X69600000Y-4020000D03*
%TD*%
D16*
%TO.C,R9*%
X20467500Y-38470000D03*
X23392500Y-38470000D03*
%TD*%
D10*
%TO.C,D12*%
X13850000Y-12537500D03*
X13850000Y-14412500D03*
%TD*%
D12*
%TO.C,BT4*%
X77400000Y-26250000D03*
X69600000Y-26250000D03*
%TD*%
D17*
%TO.C,D5*%
X34900000Y-69385000D03*
X34900000Y-67510000D03*
%TD*%
D18*
%TO.C,Y1*%
X40600000Y-64000000D03*
X40600000Y-55500000D03*
%TD*%
D12*
%TO.C,BT5*%
X77400000Y-20700000D03*
X69600000Y-20700000D03*
%TD*%
D19*
%TO.C,C5*%
X15960000Y-55520000D03*
X15960000Y-53620000D03*
%TD*%
D20*
%TO.C,U2*%
X17110000Y-62950000D03*
X14830000Y-62950000D03*
D21*
X16355000Y-67575000D03*
X13305000Y-67575000D03*
X16355000Y-70925000D03*
X13305000Y-70925000D03*
D20*
X12550000Y-62950000D03*
%TD*%
D15*
%TO.C,R4*%
X22160000Y-73450000D03*
X23985000Y-73450000D03*
%TD*%
D22*
%TO.C,C8*%
X12975000Y-49425000D03*
X12975000Y-51325000D03*
%TD*%
D14*
%TO.C,C15*%
X36775000Y-55500000D03*
X34875000Y-55500000D03*
%TD*%
D12*
%TO.C,SW1*%
X10180000Y-53080000D03*
X2380000Y-53080000D03*
%TD*%
D23*
%TO.C,U4*%
X50225000Y-56250000D03*
X50225000Y-57050000D03*
X50225000Y-57850000D03*
X50225000Y-58650000D03*
X50225000Y-59450000D03*
X50225000Y-60250000D03*
X50225000Y-61050000D03*
X50225000Y-61850000D03*
X50225000Y-62650000D03*
X50225000Y-63450000D03*
X50225000Y-64250000D03*
D24*
X51925000Y-65950000D03*
X52725000Y-65950000D03*
X53525000Y-65950000D03*
X54325000Y-65950000D03*
X55125000Y-65950000D03*
X55925000Y-65950000D03*
X56725000Y-65950000D03*
X57525000Y-65950000D03*
X58325000Y-65950000D03*
X59125000Y-65950000D03*
X59925000Y-65950000D03*
D23*
X61625000Y-64250000D03*
X61625000Y-63450000D03*
X61625000Y-62650000D03*
X61625000Y-61850000D03*
X61625000Y-61050000D03*
X61625000Y-60250000D03*
X61625000Y-59450000D03*
X61625000Y-58650000D03*
X61625000Y-57850000D03*
X61625000Y-57050000D03*
X61625000Y-56250000D03*
D24*
X59925000Y-54550000D03*
X59125000Y-54550000D03*
X58325000Y-54550000D03*
X57525000Y-54550000D03*
X56725000Y-54550000D03*
X55925000Y-54550000D03*
X55125000Y-54550000D03*
X54325000Y-54550000D03*
X53525000Y-54550000D03*
X52725000Y-54550000D03*
X51925000Y-54550000D03*
%TD*%
D25*
%TO.C,R8*%
X15500000Y-51300000D03*
X15500000Y-49475000D03*
%TD*%
D26*
%TO.C,D2*%
X17390000Y-75370000D03*
X13390000Y-75370000D03*
%TD*%
D19*
%TO.C,C4*%
X13350000Y-55500000D03*
X13350000Y-53600000D03*
%TD*%
D27*
%TO.C,RV4*%
X2120000Y-28840000D03*
D28*
X5370000Y-29840000D03*
D27*
X2120000Y-30840000D03*
%TD*%
D11*
%TO.C,S8*%
X35700000Y-17450000D03*
X35700000Y-14950000D03*
X35700000Y-12450000D03*
X30200000Y-17450000D03*
X30200000Y-14950000D03*
X30200000Y-12450000D03*
%TD*%
D22*
%TO.C,C7*%
X19775000Y-49475000D03*
X19775000Y-51375000D03*
%TD*%
D11*
%TO.C,S1*%
X64575000Y-28150000D03*
X64575000Y-25650000D03*
X64575000Y-23150000D03*
X59075000Y-28150000D03*
X59075000Y-25650000D03*
X59075000Y-23150000D03*
%TD*%
D10*
%TO.C,D11*%
X16625000Y-12525000D03*
X16625000Y-14400000D03*
%TD*%
D29*
%TO.C,C11*%
X28255000Y-63030000D03*
X30155000Y-63030000D03*
%TD*%
D30*
%TO.C,R1*%
X28912500Y-78000000D03*
X27087500Y-78000000D03*
%TD*%
D12*
%TO.C,BT2*%
X77400000Y-37430000D03*
X69600000Y-37430000D03*
%TD*%
D22*
%TO.C,C13*%
X65075000Y-59825000D03*
X65075000Y-61725000D03*
%TD*%
D11*
%TO.C,S6*%
X55150000Y-17450000D03*
X55150000Y-14950000D03*
X55150000Y-12450000D03*
X49650000Y-17450000D03*
X49650000Y-14950000D03*
X49650000Y-12450000D03*
%TD*%
D25*
%TO.C,R7*%
X32830000Y-69372500D03*
X32830000Y-67547500D03*
%TD*%
D10*
%TO.C,D8*%
X25075000Y-12475000D03*
X25075000Y-14350000D03*
%TD*%
D31*
%TO.C,J2*%
X8470000Y-83245000D03*
X8470000Y-84045000D03*
X8470000Y-84545000D03*
X8470000Y-85545000D03*
X8470000Y-87045000D03*
X8470000Y-88045000D03*
X8470000Y-88545000D03*
X8470000Y-89345000D03*
X8470000Y-89645000D03*
X8470000Y-88845000D03*
X8470000Y-87545000D03*
X8470000Y-86545000D03*
X8470000Y-86045000D03*
X8470000Y-85045000D03*
X8470000Y-83745000D03*
X8470000Y-82945000D03*
%TD*%
D30*
%TO.C,R2*%
X32320000Y-73440000D03*
X30495000Y-73440000D03*
%TD*%
D14*
%TO.C,C14*%
X36500000Y-64075000D03*
X34600000Y-64075000D03*
%TD*%
D22*
%TO.C,C6*%
X17625000Y-49475000D03*
X17625000Y-51375000D03*
%TD*%
D14*
%TO.C,C17*%
X6875000Y-49665000D03*
X4975000Y-49665000D03*
%TD*%
%TO.C,C1*%
X9140000Y-77500000D03*
X7240000Y-77500000D03*
%TD*%
D10*
%TO.C,D13*%
X10900000Y-12525000D03*
X10900000Y-14400000D03*
%TD*%
D11*
%TO.C,S7*%
X45250000Y-17450000D03*
X45250000Y-14950000D03*
X45250000Y-12450000D03*
X39750000Y-17450000D03*
X39750000Y-14950000D03*
X39750000Y-12450000D03*
%TD*%
%TO.C,S3*%
X45425000Y-28150000D03*
X45425000Y-25650000D03*
X45425000Y-23150000D03*
X39925000Y-28150000D03*
X39925000Y-25650000D03*
X39925000Y-23150000D03*
%TD*%
D15*
%TO.C,R5*%
X1710000Y-79620000D03*
X3535000Y-79620000D03*
%TD*%
D12*
%TO.C,BT7*%
X77400000Y-9470000D03*
X69600000Y-9470000D03*
%TD*%
D22*
%TO.C,C3*%
X11575000Y-90950000D03*
X11575000Y-92850000D03*
%TD*%
D10*
%TO.C,D15*%
X4950000Y-12575000D03*
X4950000Y-14450000D03*
%TD*%
D27*
%TO.C,RV3*%
X2090000Y-33360000D03*
D28*
X5340000Y-34360000D03*
D27*
X2090000Y-35360000D03*
%TD*%
D11*
%TO.C,S5*%
X64600000Y-17500000D03*
X64600000Y-15000000D03*
X64600000Y-12500000D03*
X59100000Y-17500000D03*
X59100000Y-15000000D03*
X59100000Y-12500000D03*
%TD*%
D19*
%TO.C,C16*%
X10150000Y-58200000D03*
X10150000Y-56300000D03*
%TD*%
D15*
%TO.C,R6*%
X1707500Y-77530000D03*
X3532500Y-77530000D03*
%TD*%
D32*
%TO.C,D4*%
X27905000Y-73490000D03*
X26030000Y-73490000D03*
%TD*%
D27*
%TO.C,RV1*%
X2090000Y-41670000D03*
D28*
X5340000Y-42670000D03*
D27*
X2090000Y-43670000D03*
%TD*%
D22*
%TO.C,C12*%
X21900000Y-49475000D03*
X21900000Y-51375000D03*
%TD*%
%TO.C,C10*%
X30680000Y-67560000D03*
X30680000Y-69460000D03*
%TD*%
D32*
%TO.C,D3*%
X24937500Y-78000000D03*
X23062500Y-78000000D03*
%TD*%
D12*
%TO.C,BT3*%
X77400000Y-31880000D03*
X69600000Y-31880000D03*
%TD*%
D33*
%TO.C,U3*%
X21225000Y-69600000D03*
X23525000Y-69600000D03*
D34*
X23525000Y-63300000D03*
D33*
X25825000Y-69600000D03*
%TD*%
D12*
%TO.C,BT6*%
X77400000Y-15070000D03*
X69600000Y-15070000D03*
%TD*%
D27*
%TO.C,RV2*%
X2090000Y-37480000D03*
D28*
X5340000Y-38480000D03*
D27*
X2090000Y-39480000D03*
%TD*%
D10*
%TO.C,D14*%
X7950000Y-12550000D03*
X7950000Y-14425000D03*
%TD*%
D19*
%TO.C,C9*%
X28530000Y-69450000D03*
X28530000Y-67550000D03*
%TD*%
D11*
%TO.C,S2*%
X55175000Y-28150000D03*
X55175000Y-25650000D03*
X55175000Y-23150000D03*
X49675000Y-28150000D03*
X49675000Y-25650000D03*
X49675000Y-23150000D03*
%TD*%
M02*
