M48
; DRILL file {KiCad 8.0.4} date 2025-03-19T03:36:56-0500
; FORMAT={-:-/ absolute / inch / decimal}
; #@! TF.CreationDate,2025-03-19T03:36:56-05:00
; #@! TF.GenerationSoftware,Kicad,Pcbnew,8.0.4
; #@! TF.FileFunction,Plated,1,2,PTH
FMAT,2
INCH
; #@! TA.AperFunction,Plated,PTH,ViaDrill
T1C0.0118
; #@! TA.AperFunction,Plated,PTH,ViaDrill
T2C0.0157
; #@! TA.AperFunction,Plated,PTH,ComponentDrill
T3C0.0236
; #@! TA.AperFunction,Plated,PTH,ComponentDrill
T4C0.0295
; #@! TA.AperFunction,Plated,PTH,ComponentDrill
T5C0.0394
; #@! TA.AperFunction,Plated,PTH,ComponentDrill
T6C0.0512
; #@! TA.AperFunction,Plated,PTH,ComponentDrill
T7C0.1260
%
G90
G05
T1
X0.1949Y-0.4242
X0.2657Y-2.1909
X0.314Y-0.4203
X0.3165Y-2.2169
X0.4146Y-3.463
X0.4154Y-3.3051
X0.4183Y-2.1575
X0.4301Y-0.4232
X0.5453Y-0.4252
X0.5496Y-3.6472
X0.6014Y-2.2953
X0.6319Y-3.5325
X0.6545Y-0.4242
X0.7648Y-0.4262
X0.7992Y-2.8081
X0.8083Y-3.5217
X0.8669Y-2.6008
X0.873Y-0.4272
X0.936Y-2.9641
X0.9429Y-1.8571
X0.9429Y-2.2982
X0.9732Y-3.4378
X0.9872Y-0.4281
X0.9894Y-2.6106
X1.0285Y-2.3258
X1.2815Y-0.8031
X1.2963Y-1.0128
X1.2992Y-0.5866
X1.3309Y-1.9715
X1.3585Y-1.8986
X1.4063Y-3.5878
X1.4362Y-1.9217
X1.45Y-1.9906
X1.5291Y-2.0167
X1.6299Y-0.3484
X1.6732Y-0.5906
X1.6791Y-1.0098
X1.7754Y-2.7935
X1.8957Y-2.0699
X1.9124Y-2.2461
X1.9134Y-2.2776
X1.9441Y-3.6181
X1.9492Y-2.8016
X2.0441Y-3.5866
X2.063Y-0.5876
X2.064Y-1.0098
X2.0965Y-2.4419
X2.1299Y-2.2687
X2.2016Y-2.7335
X2.2984Y-2.8047
X2.3169Y-2.315
X2.4409Y-0.5915
X2.4459Y-1.0098
X2.4906Y-0.3634
X2.5Y-0.0492
X2.5394Y-0.8028
X2.6969Y-0.6409
X3.1496Y-0.7795
X3.1634Y-0.5256
X3.1772Y-0.2362
X3.185Y-0.0886
X3.2339Y-1.4748
X3.3661Y-1.4114
T2
X0.1388Y-0.9154
X0.2343Y-1.7992
T4
X0.4051Y-1.0689
X0.4551Y-1.0189
X0.4551Y-1.1189
T5
X0.2272Y-0.7854
X0.3272Y-0.7854
X0.4272Y-0.7854
X0.4797Y-1.6394
X0.486Y-0.1372
X0.486Y-0.2372
X0.5272Y-0.7854
X0.5797Y-1.6394
X0.586Y-0.1372
X0.586Y-0.2372
X0.6272Y-0.7854
X0.6764Y-3.65
X0.6764Y-3.75
X0.6797Y-1.6394
X0.686Y-0.1372
X0.686Y-0.2372
X0.7272Y-0.7854
X0.7764Y-3.65
X0.7764Y-3.75
X0.7797Y-1.6394
X0.786Y-0.1372
X0.786Y-0.2372
X0.8091Y-1.0079
X0.8091Y-1.3071
X0.8272Y-0.7854
X0.8764Y-3.65
X0.8764Y-3.75
X0.8797Y-1.6394
X0.886Y-0.1372
X0.886Y-0.2372
X0.9272Y-0.7854
X0.986Y-0.1372
X0.986Y-0.2372
X1.0549Y-3.4281
X1.0569Y-3.2717
X1.086Y-0.1372
X1.086Y-0.2372
X1.1549Y-3.4281
X1.1569Y-3.2717
X1.186Y-0.1372
X1.186Y-0.2372
X1.2057Y-3.6801
X1.2057Y-3.7801
X1.2549Y-3.4281
X1.2569Y-3.2717
X1.286Y-0.1372
X1.286Y-0.2372
X1.3057Y-3.6801
X1.3057Y-3.7801
X1.3549Y-3.4281
X1.3569Y-3.2717
X1.386Y-0.1372
X1.386Y-0.2372
X1.4057Y-3.6801
X1.4057Y-3.7801
X1.4549Y-3.4281
X1.4569Y-3.2717
X1.5057Y-3.6801
X1.5057Y-3.7801
X1.5258Y-1.4695
X1.5549Y-3.4281
X1.5569Y-3.2717
X1.6012Y-1.7283
X1.6057Y-3.6801
X1.6057Y-3.7801
X1.6258Y-1.4695
X1.6278Y-0.1421
X1.6278Y-0.2421
X1.6549Y-3.4281
X1.6569Y-3.2717
X1.7012Y-1.7283
X1.7258Y-1.4695
X1.7278Y-0.1421
X1.7278Y-0.2421
X1.7549Y-3.4281
X1.7569Y-3.2717
X1.8012Y-1.7283
X1.8258Y-1.4695
X1.8278Y-0.1421
X1.8278Y-0.2421
X1.9012Y-1.7283
X1.9278Y-0.1421
X1.9278Y-0.2421
X1.9433Y-3.2717
X1.9441Y-3.4232
X2.0012Y-1.7283
X2.0258Y-1.4685
X2.0278Y-0.1421
X2.0278Y-0.2421
X2.0433Y-3.2717
X2.0441Y-3.4232
X2.0929Y-3.6807
X2.0929Y-3.7807
X2.1012Y-1.7283
X2.1258Y-1.4685
X2.1278Y-0.1421
X2.1278Y-0.2421
X2.1433Y-3.2717
X2.1441Y-3.4232
X2.1929Y-3.6807
X2.1929Y-3.7807
X2.2012Y-1.7283
X2.2258Y-1.4685
X2.2278Y-0.1421
X2.2278Y-0.2421
X2.2433Y-3.2717
X2.2441Y-3.4232
X2.2929Y-3.6807
X2.2929Y-3.7807
X2.3012Y-1.7283
X2.3258Y-1.4685
X2.3278Y-0.1421
X2.3278Y-0.2421
X2.3433Y-3.2717
X2.3441Y-3.4232
X2.3929Y-3.6807
X2.3929Y-3.7807
X2.4278Y-0.1421
X2.4278Y-0.2421
X2.4433Y-3.2717
X2.4441Y-3.4232
X2.4929Y-3.6807
X2.4929Y-3.7807
X2.5278Y-0.1421
X2.5278Y-0.2421
X2.5433Y-3.2717
X2.5441Y-3.4232
X2.6433Y-3.2717
X2.6441Y-3.4232
X2.7984Y-3.7232
X2.7984Y-3.8232
X2.8984Y-3.7232
X2.8984Y-3.8232
X2.9984Y-3.7232
X2.9984Y-3.8232
X3.0984Y-3.7232
X3.0984Y-3.8232
X3.2421Y-1.6843
X3.2421Y-1.7843
X3.2421Y-1.8843
X3.2421Y-1.9843
X3.2421Y-2.0843
X3.2421Y-2.1843
X3.2421Y-2.2843
X3.2421Y-2.3843
X3.2421Y-2.4843
X3.2423Y-2.6589
X3.2423Y-2.7589
X3.2423Y-2.8589
X3.2423Y-2.9589
X3.2423Y-3.0589
X3.2423Y-3.1589
X3.2423Y-3.2589
X3.2423Y-3.3589
X3.2642Y-3.7236
X3.2642Y-3.8236
X3.3642Y-3.7236
X3.3642Y-3.8236
X3.3937Y-1.6823
X3.3937Y-1.7823
X3.3937Y-1.8823
X3.3937Y-1.9823
X3.3937Y-2.0823
X3.3937Y-2.1823
X3.3937Y-2.2823
X3.3937Y-2.3823
X3.3937Y-2.4823
X3.3939Y-2.6589
X3.3939Y-2.7589
X3.3939Y-2.8589
X3.3939Y-2.9589
X3.3939Y-3.0589
X3.3939Y-3.1589
X3.3939Y-3.2589
X3.3939Y-3.3589
X3.4642Y-3.7236
X3.4642Y-3.8236
X3.5642Y-3.7236
X3.5642Y-3.8236
X3.6667Y-1.8707
X3.6667Y-1.9707
X3.6667Y-2.0707
X3.6667Y-2.1707
X3.6667Y-2.2707
X3.6787Y-2.8126
X3.6787Y-2.9126
X3.6787Y-3.0126
X3.6787Y-3.1126
X3.6787Y-3.2126
X3.7667Y-1.8707
X3.7667Y-1.9707
X3.7667Y-2.0707
X3.7667Y-2.1707
X3.7667Y-2.2707
X3.7787Y-2.8126
X3.7787Y-2.9126
X3.7787Y-3.0126
X3.7787Y-3.1126
X3.7787Y-3.2126
T6
X0.1939Y-2.6831
X0.1939Y-2.8799
X3.5492Y-1.5126
X3.722Y-0.4118
X3.722Y-0.6087
X3.8492Y-0.8126
X3.8492Y-1.1126
X3.8492Y-1.5126
T7
X0.1575Y-0.1575
X0.1575Y-3.7795
X3.7795Y-0.1575
X3.7795Y-3.7795
T3
G00X0.1585Y-3.2274
M15
G01X0.1348Y-3.2274
M16
G05
G00X0.1585Y-3.5675
M15
G01X0.1348Y-3.5675
M16
G05
G00X0.3329Y-3.2274
M15
G01X0.2896Y-3.2274
M16
G05
G00X0.3329Y-3.5675
M15
G01X0.2896Y-3.5675
M16
G05
M30
